<svg xmlns="http://www.w3.org/2000/svg" viewBox="0 0 760 260" role="img" aria-label="repos by primary language">
  <style>
    text { font-family: ui-monospace, 'SF Mono', 'Cascadia Mono', Menlo, Consolas, 'Liberation Mono', monospace; font-size: 13px; fill: #1b1814; }
    .t { font-size: 12px; fill: #59544e; letter-spacing: 2px; }
    .n { fill: #59544e; }
  </style>
  <text x="0" y="16" class="t">$ repos --by-lang</text>
  <text x="758" y="16" class="t" text-anchor="end">102 public repos · primary language</text>

  <text x="0" y="52">javascript</text>  <rect x="118" y="42" width="460" height="12" rx="2" fill="#cbb037"/> <text x="588" y="52" class="n">32</text>
  <text x="0" y="78">typescript</text>  <rect x="118" y="68" width="302" height="12" rx="2" fill="#3178c6"/> <text x="430" y="78" class="n">21</text>
  <text x="0" y="104">solidity</text>   <rect x="118" y="94" width="72" height="12" rx="2" fill="#aa6746"/>  <text x="200" y="104" class="n">5</text>
  <text x="0" y="130">python</text>     <rect x="118" y="120" width="58" height="12" rx="2" fill="#3572a5"/> <text x="186" y="130" class="n">4</text>
  <text x="0" y="156">ruby</text>       <rect x="118" y="146" width="58" height="12" rx="2" fill="#9e4136"/> <text x="186" y="156" class="n">4</text>
  <text x="0" y="182">c++</text>        <rect x="118" y="172" width="43" height="12" rx="2" fill="#d4426e"/> <text x="171" y="182" class="n">3</text>
  <text x="0" y="208">go</text>         <rect x="118" y="198" width="29" height="12" rx="2" fill="#0099c0"/> <text x="157" y="208" class="n">2</text>
  <text x="0" y="234">other</text>      <rect x="118" y="224" width="187" height="12" rx="2" fill="#c2bcb1"/> <text x="315" y="234" class="n">13</text>
</svg>
